<?xml version="1.0" standalone="no"?>
<!DOCTYPE svg PUBLIC "-//W3C//DTD SVG 20010904//EN"
 "http://www.w3.org/TR/2001/REC-SVG-20010904/DTD/svg10.dtd">
<svg version="1.0" xmlns="http://www.w3.org/2000/svg"
 width="278.000000pt" height="278.000000pt" viewBox="0 0 278.000000 278.000000"
 preserveAspectRatio="xMidYMid meet">
<metadata>
Created by potrace 1.11, written by Peter Selinger 2001-2013
</metadata>
<g transform="translate(0.000000,278.000000) scale(0.100000,-0.100000)"
fill="#000000" stroke="none">
<path d="M1950 2498 c-69 -5 -192 -7 -275 -5 -82 3 -163 2 -180 -2 l-30 -6 -6
-90 c-12 -157 -22 -235 -30 -235 -5 0 -9 -115 -9 -254 0 -223 3 -269 22 -363
18 -90 22 -143 22 -324 1 -148 -3 -220 -10 -230 -44 -54 -57 -403 -15 -416 9
-2 37 -14 62 -25 36 -16 58 -19 100 -14 30 4 95 10 145 14 51 4 99 13 107 20
21 18 317 22 338 5 8 -6 36 -14 63 -18 61 -9 66 -3 66 93 0 40 7 108 16 150 9
42 17 113 18 157 1 105 -15 295 -25 295 -9 0 -7 120 6 310 3 58 1 258 -5 445
-15 442 -17 477 -38 493 -18 14 -147 14 -342 0z"/>
<path d="M790 2422 c0 -22 7 -61 16 -88 13 -39 18 -107 21 -321 l5 -273 -156
0 -156 0 0 98 c0 53 -7 147 -15 207 -8 61 -15 150 -15 198 0 67 -3 88 -12 84
-16 -5 -17 -126 -4 -399 l9 -188 -137 0 c-83 0 -137 -4 -137 -10 -1 -5 -2 -15
-3 -22 -1 -9 34 -11 137 -9 l137 3 0 -256 0 -256 -22 -4 c-13 -3 -84 -13 -158
-23 -75 -9 -141 -23 -148 -30 -7 -7 -18 -13 -23 -13 -5 0 -9 -7 -9 -15 0 -16
30 -20 46 -6 5 5 67 16 139 25 72 9 140 18 153 20 20 3 22 -1 22 -46 0 -73 22
-238 32 -238 4 0 8 -45 8 -100 0 -82 3 -100 15 -100 20 0 20 146 0 285 -8 55
-15 125 -15 156 l0 56 60 6 c34 4 69 11 78 16 9 4 52 11 94 14 l78 7 2 -258
c3 -235 4 -257 21 -260 16 -3 17 15 17 262 l0 265 93 4 c163 8 327 30 327 44
0 22 -50 26 -144 13 -50 -7 -133 -15 -183 -17 l-93 -4 0 223 0 224 98 31 c141
47 170 53 240 53 55 0 63 2 60 18 -3 14 -16 18 -69 20 -51 2 -89 -4 -180 -32
-63 -19 -121 -37 -130 -41 -14 -5 -17 20 -23 232 -4 131 -11 265 -17 298 -5
33 -12 78 -15 100 -9 69 -14 85 -29 85 -11 0 -15 -11 -15 -38z m40 -951 l0
-228 -46 -7 c-26 -3 -63 -6 -83 -6 -21 0 -41 -4 -46 -9 -6 -5 -38 -13 -72 -17
l-63 -7 0 252 0 251 155 0 155 0 0 -229z"/>
</g>
</svg>
